<?xml version="1.0" encoding="UTF-8" standalone="no"?>
<!DOCTYPE svg PUBLIC "-//W3C//DTD SVG 1.1//EN" "http://www.w3.org/Graphics/SVG/1.1/DTD/svg11.dtd">
<!-- Created with Vectornator (http://vectornator.io/) -->
<svg height="100%" stroke-miterlimit="10" style="fill-rule:nonzero;clip-rule:evenodd;stroke-linecap:round;stroke-linejoin:round;" version="1.1" viewBox="0 0 1921.18 464.533" width="100%" xml:space="preserve" xmlns="http://www.w3.org/2000/svg" xmlns:vectornator="http://vectornator.io" xmlns:xlink="http://www.w3.org/1999/xlink">
<defs/>
<g id="Слой-1" vectornator:layerName="Слой 1">
<path d="M1157.91 100.438L1130.97 100.562C1108.88 100.649 1081.07 112.113 1065.34 127.625L1033.28 159.25L1031.94 160.594L1025.47 166.969L1025.5 167L1011.16 181.25C977.803 214.369 976.442 268.101 1007.47 302.969C1007.5 303.143 1007.45 303.361 1007.56 303.469C1008.09 303.984 1008.56 304.362 1009.09 304.875C1009.2 304.989 1009.3 305.105 1009.41 305.219L1009.66 305.469L1009.72 305.406C1014.61 310.106 1019.68 314.861 1023.84 318.25L1027.34 321.031C1064.97 351.66 1124.22 351.66 1161.84 321.031L1165.34 318.25C1173.95 311.247 1186.18 299.412 1193.47 291.125L1196.44 287.781C1211.33 270.85 1219.68 248.952 1220.62 226.125C1220.67 225.104 1220.72 223.504 1220.72 223.219C1220.72 223.219 1217.46 222.484 1216.28 222.312C1215.1 222.141 1214.56 222.156 1214.56 222.156C1197.36 222.039 1174.82 232.918 1164.22 246.469L1155.44 257.688C1150.01 263.862 1139.77 273.673 1133.34 278.906L1129.84 281.75C1110.85 297.209 1078.33 297.209 1059.34 281.75L1055.84 278.906C1052.88 276.492 1049.01 272.84 1045.28 269.281C1032.11 254.429 1032.66 231.302 1046.84 217.219L1061.09 203.062L1067.66 196.562L1069 195.25L1100.94 163.719C1107.22 157.517 1122.33 151.285 1131.16 151.25L1157.91 100.438Z" fill="#000000" fill-rule="nonzero" opacity="1" stroke="none"/>
<path d="M679.094 100.469L658.125 100.5C658.125 100.5 658.55 100.78 658.812 101.094C676.003 121.571 688.436 146.155 694.469 173.156C694.565 173.588 694.631 174 694.719 174.406C695.141 176.365 695.458 178.361 695.812 180.344C697.281 192.692 701.413 205.245 707.312 217.062C707.977 218.434 708.599 219.807 709.312 221.156C710.17 222.729 711.077 224.246 712 225.781C721.907 242.804 735.476 257.65 751.031 266.719L859.469 329.969C872.731 337.704 895.928 343.989 911.281 344L939.062 344L939.062 338.75C939.04 327.125 930.887 312.949 920.844 307.094L835.156 257.125L896.844 219.844C935.915 196.244 950.14 144.934 928.781 104.594L926.75 100.781L873.438 100.75L883.5 127.188C890.574 145.773 882.51 169.167 865.5 179.469L798.656 219.969C792.857 223.472 780.402 223.53 774.562 220.094L774.312 219.969C766.776 215.534 759.622 207.26 754.344 197.938C750.465 190.704 747.629 182.972 746.625 175.812C746.344 173.813 745.094 168.105 744.188 164.25C742.249 155.158 739.958 146.204 736.938 137.562L736.938 137.531C727.55 117.035 701.637 100.44 679.094 100.469Z" fill="#000000" fill-rule="nonzero" opacity="1" stroke="none"/>
<path d="M554.719 100.656L507.062 100.812L552.062 139.219L571.062 156.688C583.663 168.257 595.15 194.394 595.125 211.5L595 322.406L614.469 335.188C621.635 339.895 634.395 343.7 642.969 343.688L645.688 343.688L645.812 211.562C645.856 181.768 630.085 144.433 608.688 122.625C607.588 121.505 602.216 117.185 596.5 113.438C590.784 109.69 580.437 105.813 580.438 105.812L580.219 105.938C571.527 102.656 562.286 100.529 554.719 100.656ZM439.906 143.938L426.125 168.094C418.696 181.119 412.864 203.499 412.719 218.844L412.656 218.844L412.656 219.594C412.656 219.604 412.656 219.614 412.656 219.625C412.657 219.749 412.624 219.909 412.625 220.031L412.688 220.031C412.765 287.078 466.086 341.442 532.719 343.281L532.844 343.469L561.688 343.531C573.312 343.429 587.432 335.177 593.219 325.094L594.781 322.406L583.656 314.938C574.33 308.684 557.965 301.243 547.125 298.312L515.844 289.844C485.426 281.039 463.266 253.025 463.344 219.719L463.344 218.969L463.281 218.969L462.906 178.094C462.804 166.469 454.552 152.349 444.469 146.562L439.906 143.938Z" fill="#000000" fill-rule="nonzero" opacity="1" stroke="none"/>
<path d="M1663.16 101.156C1662.54 101.16 1661.93 101.235 1661.31 101.25C1660.17 101.264 1659.02 101.167 1657.88 101.219L1657.88 101.406C1639.19 102.473 1621 108.472 1605.38 119.156C1602.68 120.998 1598.25 124.728 1593.78 128.656L1593.72 128.562L1585.12 136.625C1584.66 137.075 1583.87 137.757 1583.47 138.156L1582.47 139.125C1573.8 147.276 1563.87 162.516 1559.38 174.156L1559.34 174.156L1558.97 175.094C1558.86 175.381 1558.66 175.718 1558.56 176L1558.44 176.375L1557.53 178.969C1556.56 181.58 1555.82 184.439 1555.34 187.469C1549.63 216.795 1563.83 247.71 1590.66 262C1592.57 263.25 1594.47 264.377 1596.31 265.219L1602.81 268.188L1617.38 236.719L1624.34 222.094L1621.62 220.812C1615.85 217.543 1609.5 211.246 1606.78 205.719L1606.72 205.594C1605.12 202.349 1605.01 197.307 1606.22 193.688L1607.5 190.906C1609.97 185.592 1615.36 177.957 1619.53 173.844L1620.59 172.812C1622.22 171.26 1624.45 169.169 1627.12 166.812C1630.43 163.895 1633.37 161.486 1634.03 161.031C1642.67 155.125 1652.85 151.985 1663.28 151.875C1676.78 152.045 1689.71 157.303 1699.5 167.094L1718.84 186.438C1739.23 206.824 1739.23 239.895 1718.84 260.281L1699.5 279.625C1697.11 282.016 1694.51 284.091 1691.78 285.938C1684.33 290.411 1674.61 293.95 1667.94 293.969L1667.66 293.969C1632.87 294.062 1595.26 318.197 1580.69 349.781L1580.22 350.75L1575.28 361.531L1565.84 381.969L1565.88 382L1553.72 408.469L1536.44 445.75L1578.59 434.438C1590.27 431.304 1603.8 420.028 1609.19 409.062L1609.22 409.062L1609.38 408.719C1609.41 408.646 1609.47 408.573 1609.5 408.5L1626.69 371C1633 357.325 1652.72 344.665 1667.78 344.625L1668.06 344.625C1691.55 344.562 1720.63 331.824 1736.59 314.594L1736.41 314.438L1754.69 296.094C1794.87 255.914 1794.87 190.805 1754.69 150.625L1735.38 131.25C1715.95 111.822 1689.97 101.401 1663.16 101.25L1663.16 101.156Z" fill="#000000" fill-rule="nonzero" opacity="1" stroke="none"/>
<path d="M1389.69 100.781C1366.19 100.781 1342.7 108.505 1324.5 123.906L1321.22 126.688C1312.99 133.651 1301.24 145.395 1294.28 153.625L1278 172.25L1328.44 191.844C1328.44 191.844 1329.18 190.921 1330.22 189.688L1333 186.312C1338.15 180.229 1347.88 170.554 1353.97 165.406L1357.25 162.625C1365.49 155.652 1376.49 152.064 1387.62 151.656L1387.62 151.844C1398.57 151.35 1409.31 154.235 1418.44 160.094C1418.46 160.106 1418.48 160.112 1418.5 160.125C1418.6 160.192 1418.68 160.276 1418.78 160.344C1421.72 162.262 1424.48 164.47 1427.03 167L1446.38 186.188C1466.68 206.368 1466.68 239.038 1446.38 259.219L1433.38 272.125C1430.63 274.668 1427.71 277.486 1425.5 279.281L1422.03 282.125C1413.05 289.433 1401.04 293.164 1388.88 293.562C1388.4 293.552 1387.92 293.586 1387.44 293.562L1387.44 293.656C1374.34 293.791 1361.16 289.987 1351.5 282.125L1348.03 279.281C1341.6 274.048 1331.34 264.206 1325.91 258.031L1317.16 246.844C1306.55 233.293 1284.02 222.414 1266.81 222.531L1260.66 222.5C1260.66 222.5 1260.71 225.479 1260.75 226.5C1261.69 249.327 1270.05 271.194 1284.94 288.125L1287.91 291.5C1295.19 299.787 1307.43 311.622 1316.03 318.625L1319.5 321.406C1339.61 337.777 1365.92 345.285 1391.78 344.156C1418.15 343.72 1443.63 333.434 1462.78 314.406L1469.25 307.938C1470.82 306.462 1472.24 305.358 1473.78 303.844C1473.89 303.738 1473.87 303.512 1473.91 303.344L1482.09 295.156C1522.35 255.156 1522.35 190.25 1482.09 150.25L1462.78 131C1460.26 128.491 1457.61 126.145 1454.88 123.938L1454.91 123.906C1454.84 123.848 1454.76 123.808 1454.69 123.75C1436.51 108.465 1413.09 100.781 1389.69 100.781Z" fill="#000000" fill-rule="nonzero" opacity="1" stroke="none"/>
<path d="M377.031 100.25C363.329 100.243 346.781 109.915 340.094 121.875L318.125 161.188L318.062 161.156L309.25 176.625C303.587 186.582 287.08 196.203 275.625 196.25L235.125 196.438C218.231 196.508 200.299 203.205 185.5 213.719L185.562 177C185.7 161.648 179.638 138.399 172.031 125.062L158.25 100.906L153.688 103.531C143.605 109.318 135.352 123.406 135.25 135.031L134.938 265.969L134.844 312.312L134.969 312L135.062 343.906L136.031 343.906C149.733 343.913 166.251 334.21 172.938 322.25L200.562 272.844L200.594 272.844L204.906 265.125C209.934 256.081 224.964 247.168 235.312 247.125L254.719 247.031L254.406 247.219L269.906 247.156C282.729 247.099 298.928 255.647 306.094 266.281L317.5 283.219L322.469 263.625C324.298 256.435 328.754 245.396 332.406 238.938L353.906 200.906L354 200.875L359.844 190.438L366.531 178.594L366.406 178.656L372.531 167.719C375.627 162.179 378.111 152.534 378.094 146.188L377.969 100.25L377.031 100.25Z" fill="#000000" fill-rule="nonzero" opacity="1" stroke="none"/>
</g>
</svg>
