<svg xmlns="http://www.w3.org/2000/svg" viewBox="0 0 626.63 585.01"><defs><style>.cls-1{fill:#b824f6;}</style></defs><g id="Слой_2" data-name="Слой 2"><g id="Слой_1-2" data-name="Слой 1"><path class="cls-1" d="M39.07,351.44H50.43C53,378.14,62,431.08,99.88,481.78,174.09,581,294.29,585.09,311.11,585s145.43-2.85,221.63-105.84c36.25-49,45.44-100.08,48.15-127.95l14.06-.14a27.65,27.65,0,0,0,27.36-27.65v-1.07a27.65,27.65,0,0,0-27.52-27.65l-87.84-.4A27.64,27.64,0,0,0,479.18,322v2a27.65,27.65,0,0,0,27.51,27.65l16.51.08c-2.9,21.63-11.54,62.59-42.07,100.62-53.41,66.53-143.49,86.32-215.35,70.92-18.89-4.05-79.2-17.94-121.66-74.39-28.86-38.35-35.72-78.09-37.74-97.37l15.39-.23a27.65,27.65,0,0,0,27.23-28v-.56a27.65,27.65,0,0,0-27.52-27.32L39.17,295A27.65,27.65,0,0,0,11.4,323.26l0,1.17A27.65,27.65,0,0,0,39.07,351.44Z"/><path class="cls-1" d="M620.36,140.86C617,127.88,590.49,32.93,500.21,6.4,431-13.93,373.34,20.32,367.06,24.19c-46.17,28.44-63.87,71.15-69,85A138.24,138.24,0,0,0,271.2,79.27c-45.42-37.55-110.08-40.49-154-26C46.23,76.64-4.27,156.71.29,249.36l618-1C624.07,228.3,632.65,188,620.36,140.86ZM233.9,193.34a70,70,0,0,0-66.36-51.61A70.62,70.62,0,0,0,130,153.44c-20.5,13.69-27,33.94-28.63,39.69l-38.82-.22c2.23-9.73,11.31-44,44.25-68.75a116.8,116.8,0,0,1,34-17.67,100.48,100.48,0,0,1,65.1.79A106.8,106.8,0,0,1,220,113.54c44.32,23.58,56.43,70.12,58.55,78.94Zm334.84,0-40.91.15c.3-6.61,1.34-43.73-26.6-70.27-5.56-5.27-23.67-22.47-50.32-22-31.22.58-50.45,25-55.8,31.8-19.29,24.5-19.1,51.82-18.73,60.08l-41.66-.2c-.07-12.5,1.28-53.94,31.9-89.8,7.27-8.51,37.3-43.68,82.85-44.39a94.26,94.26,0,0,1,32.67,5.5c48.15,16.07,80.68,64.19,86,109.59A118.51,118.51,0,0,1,568.74,193.34Z"/></g></g></svg>