<svg xmlns="http://www.w3.org/2000/svg" width="90" height="20" fill="none">
  <path fill="#D49BFC" d="m55.8043.0107422-1.4695.0071299C53.1299.0228749 51.613.682086 50.755 1.57407l-1.7488 1.81852-.0731.07728-.3529.36658.0016.00179-.7822.81941c-1.8194 1.90443-1.8937 4.99417-.2012 6.99915.0016.01-.0011.0226.0049.0288.0289.0296.0545.0513.0834.0808.006.0066.0115.0132.0175.0198l.0136.0144.0033-.0036c.2667.2702.5433.5436.7702.7385l.1909.1599c2.0526 1.7613 5.2844 1.7613 7.3365 0l.1909-.1599c.4696-.4027 1.1367-1.0832 1.5343-1.5597l.162-.1923c.8122-.97361 1.2677-2.2328 1.319-3.54542.0027-.05871.0054-.15071.0054-.1671 0 0-.1778-.04226-.2422-.05215-.0643-.00984-.0938-.00897-.0938-.00897-.9382-.00673-2.1676.61884-2.7458 1.39806l-.4789.64512c-.2962.35502-.8548.91918-1.2055 1.22006l-.1909.1636c-1.0359.8889-2.8097.8889-3.8455 0l-.1909-.1636c-.1615-.1388-.3726-.34878-.576-.55343-.7184-.85403-.6884-2.18389.0851-2.99371l.7772-.81406.3584-.37377.0731-.07544 1.7422-1.81312c.3425-.35663 1.1667-.71499 1.6484-.717L55.8043.0107422ZM29.6867.0124534 28.543.0142358s.0232.0161009.0374.0341567C29.5181 1.22588 30.1963 2.63952 30.5254 4.19215c.0052.02484.0088.04853.0136.07188.023.11265.0403.22742.0596.34145.0802.71004.3056 1.43188.6273 2.11139.0363.07889.0702.15784.1091.23541.0468.09045.0963.17769.1466.26595.5404.97887 1.2806 1.83256 2.129 2.35405l5.9149 3.63702c.7234.4448 1.9887.8062 2.8261.8068h1.5154v-.3018c-.0012-.6685-.4459-1.4837-.9937-1.8204l-4.674-2.8733 3.3649-2.14376c2.1311-1.35707 2.907-4.30753 1.742-6.627188l-.1108-.219258-2.908-.0017825.5489 1.5202585c.3859 1.06869-.054 2.4139-.9818 3.0063l-3.6461 2.32886c-.3163.20143-.9957.20476-1.3142.00718l-.0137-.00718c-.411-.25503-.8013-.73081-1.0892-1.26685-.2115-.41597-.3662-.86058-.421-1.2723-.0153-.11495-.0835-.44317-.1329-.66485-.1058-.52281-.2308-1.03769-.3955-1.53463v-.00178C32.3298.965043 30.9164.0107858 29.6867.0124534Zm-6.7842.01105L20.303.0324737 22.7576 2.24098 23.794 3.2455c.6873.66524 1.3139 2.16819 1.3125 3.15183l-.0068 6.37737 1.062.735c.3908.2707 1.0868.4895 1.5545.4888h.1483l.0068-7.5976c.0024-1.71324-.8579-3.8601-2.025-5.11412-.06-.0644-.353-.312814-.6648-.528277-.3118-.21552-.8761-.438516-.8761-.438516l-.0119.007246c-.4742-.188724-.9782-.3110325-1.391-.3037296ZM16.6399 2.51234l-.7517 1.38903c-.4052.74897-.7233 2.03588-.7312 2.91826h-.0035v.04491c.0001.00713-.0017.01633-.0016.02335h.0034c.0042 3.85541 2.9126 6.98151 6.5472 7.08721l.0068.0108 1.5734.0036c.634-.0059 1.4042-.4804 1.7199-1.0602l.0852-.1546-.6069-.4294c-.5087-.3596-1.4013-.7875-1.9926-.956l-1.7063-.487c-1.6591-.5063-2.8679-2.11717-2.8636-4.03235v-.04313h-.0035l-.0204-2.35042c-.0056-.66847-.4557-1.48041-1.0057-1.81318l-.2489-.15088ZM83.3636.0522461c-.0338.00023-.0671.0045428-.1009.0054054-.0622.000805-.1249-.0047727-.1871-.0017825v.0107528C82.0562.127977 81.064.472936 80.2119 1.08729c-.1472.10592-.3889.32041-.6327.54628l-.0033-.0054-.4691.46364c-.025.02588-.0681.06509-.09.08804l-.0545.05572c-.4729.4687-1.0146 1.34504-1.2595 2.01437h-.0022l-.0201.05394c-.006.0165-.0169.03588-.0224.0521l-.0065.02156-.0497.14916c-.0529.15014-.0933.31454-.1194.48878-.3115 1.68632.4631 3.46402 1.9265 4.28573.1042.07188.2079.13669.3082.1851l.3546.17073.7947-1.80955.3796-.84098-.1483-.07372c-.3148-.18798-.6611-.55007-.8095-.86789l-.0033-.00719c-.0872-.18659-.0932-.47652-.0272-.68462l.0698-.15997c.1347-.30557.4287-.74461.6562-.98112l.0578-.05934c.0889-.08924.2105-.20948.3562-.34502.1805-.16773.3409-.30625.3769-.33242.4713-.33961 1.0266-.52017 1.5955-.52649.7363.00977 1.4416.31212 1.9756.87513l1.0549 1.11233c1.1122 1.17225 1.1122 3.07393 0 4.24618l-1.0549 1.11233c-.1303.1375-.2722.2568-.4211.363-.4063.2572-.9365.4607-1.3004.4618h-.0152c-1.8977.0054-3.9492 1.3932-4.7439 3.2094l-.0256.0557-.2695.6199-.5149 1.1753.0022.0017-.6633 1.5221-.9426 2.1437 2.2992-.6504c.6371-.1802 1.3751-.8286 1.6691-1.4592h.0016l.0087-.0197c.0017-.0042.0049-.0084.0066-.0126l.9376-2.1564c.3442-.7863 1.4199-1.5143 2.2413-1.5166h.0153c1.2813-.0036 2.8675-.7361 3.738-1.7269l-.0098-.009.9971-1.0548c2.1917-2.31045 2.1917-6.05439 0-8.36485l-1.0533-1.11412C86.2431.66557 84.826.0663344 83.3636.0576515V.0522461ZM68.4469.0305176c-1.2818 0-2.5631.4441504-3.5559 1.3297524l-.1789.15997c-.4489.40039-1.0898 1.0757-1.4694 1.54895l-.8881 1.07099 2.7513 1.12671s.0404-.05308.0971-.12398l.1517-.19413c.2809-.34979.8116-.90613 1.1438-1.20215l.1789-.15992c.4495-.40096 1.0495-.60728 1.6566-.63074v.01081c.5973-.02841 1.1831.13749 1.6811.4744.0011.00069.0022.00103.0033.00178.0054.00385.0098.00868.0152.01259.1604.11029.311.23726.45.38274l1.0555 1.10336c1.1073 1.16041 1.1073 3.03902 0 4.19948l-.7091.74213c-.15.14624-.3093.30824-.4298.41144l-.1893.1636c-.4898.4202-1.1449.6348-1.8082.6576-.0262-.0005-.0524.0014-.0785 0v.0055c-.7146.0077-1.4335-.211-1.9604-.6631l-.1893-.1636c-.3507-.30086-.9104-.8668-1.2066-1.22188l-.4772-.64329c-.5788-.77922-1.8077-1.40479-2.7464-1.39806l-.3355-.00178s.0027.1713.0049.23001c.0513 1.31261.5073 2.57003 1.3195 3.5436l.162.1941c.3971.4765 1.0647 1.157 1.5338 1.5597l.1893.16c1.0969.9413 2.532 1.3731 3.9426 1.3081 1.4384-.025 2.8282-.6165 3.8728-1.7107l.3529-.3719c.0856-.0849.1631-.1484.2471-.2354.006-.0061.0049-.0191.0071-.0288l.4462-.4708c2.196-2.3001 2.196-6.03237 0-8.33248l-1.0533-1.10693c-.1375-.14427-.282-.27917-.4309-.40608l.0016-.00184c-.0038-.00334-.0082-.00564-.012-.00897C71.0007.472368 69.7233.0305176 68.4469.0305176ZM13.2104 2.2e-7C12.463-.0004023 11.5603.555764 11.1956 1.2435L9.99726 3.5041l-.00343-.00184-.48067.88951c-.30889.57255-1.20928 1.12579-1.83411 1.12849l-2.20911.01081c-.92151.00403-1.89963.38912-2.70685.9937l.00338-2.11144c.00753-.88278-.32313-2.21966-.73806-2.98657L1.27671.0377219 1.02787.188666C.477879.521435.0277097 1.33153.022146 2L.00512784 9.52929 0 12.1941l.00681826-.0179.00507294 1.8347h.0528556c.7473902.0004 1.6483832-.5576 2.0131332-1.2453l1.50678-2.84098h.00175l.2352-.44386c.27426-.52006 1.09408-1.03258 1.65853-1.03505l1.05857-.00541-.01707.01081.84546-.00362c.69945-.00327 1.58304.48826 1.97392 1.09974l.62215.97397.27103-1.1267c.0998-.41344.3428-1.04821.542-1.41956l1.1728-2.18695.0051-.00178.3188-.60016.3647-.68106-.0068.00357.3341-.62891c.1689-.31857.3044-.87318.3034-1.23809L13.2615 2.2e-7h-.0511Z"/>
</svg>
