<svg width="210" height="155" fill="none" xmlns="http://www.w3.org/2000/svg">
  <path d="M31.9148 14.6889c1.65.1672 2.5854.9109 3.2645 1.8958l.2181.0461c8.8787 3.8795 13.6976 11.9704 14.6977 20.7764.7223 6.36-.5938 12.8799-3.701 18.6115-3.0122 6.5701-10.5626 8.7696-17.2835 9.5302l-1.7502.1981c-.4901.0554-1.0502.1189-1.6182.1123l-.8402.0951c-10.0814 1.141-19.27131-6.1012-22.37309-15.3065C1.23923 48.0332.447553 45.4327.145943 42.777-1.41763 29.0087 9.78877 15.9189 23.8609 14.3263c2.5904-.2931 5.2984-.1749 8.0539.3626Zm.5591 9.9179c-.9657-.3862-1.6593-.8741-2.2366-1.5873-1.6658-.307-3.2999-.3345-4.9101-.1522-2.9405.3327-5.7316 1.3565-8.3653 3.1411-6.1379 4.0217-8.62959 10.179-7.92321 16.3992.35717 3.145 1.39851 6.0711 3.20211 8.84 3.125 5.6634 8.9943 6.7688 14.9451 6.0954 2.8705-.3249 5.6933-1.0691 8.1502-1.9134 5.0098-3.9649 7.1976-10.3002 6.4913-16.5204-.6668-5.8707-3.8537-11.4563-9.3535-14.3024Zm34.9686 35.8253c.4813 2.9895-1.5144 4.7726-3.6847 5.0182-2.0303.2298-4.2893-.9303-4.6847-3.7878l-6.9317-44.803c-.9923-1.8697-.57-4.3951 1.4971-5.5493.0622-.0778.1322-.0856.2022-.0936.062-.0779.062-.0779.132-.0858.7304-.4366 1.4926-.5937 2.4186-.5568 12.6849-2.56824 25.5972-4.38349 38.7591-5.87307 2.9405-.33277 4.7268 1.65949 4.9646 3.75619.23 2.02688-.9395 4.21198-3.7321 4.59888-3.9364.304-7.8729.6079-11.7935 1.0516-7.9811.9031-15.7747 2.21-23.6909 4.3092l6.544 42.0153Zm36.8185-24.5537c-3.103.7759-5.1773-1.2546-5.4392-3.5609-.2142-1.8871.7615-3.9087 3.3822-4.5593 5.514-1.4027 11.073-3.0229 16.704-4.0141-1.166-3.4074-2.94-6.5337-5.381-9.3012-3.027-3.5508-7.681-3.9444-11.545-6.12624-1.846-.64058-2.7126-2.02904-2.8712-3.42683-.2461-2.16658 1.2502-4.601131 3.6302-4.8705228.63-.0713065 1.354.05913 2.164.3214258 1.106.370381 2.017.904307 2.929 1.438227 9.692 2.30092 16.777 10.98474 19.756 20.98264.638-.0014 1.276-.0028 2.054-.0202 2.692-.0214 4.167 1.723 4.389 3.6799.254 2.2364-1.165 4.733-4.277 4.802-.28.0318-.49.0555-.638.0014.287 3.153.131 6.1438-.33 8.9567.027 8.3499-4.518 15.1644-10.333 20.7778-.877 1.0194-1.818 1.4797-2.798 1.5907-2.31.2615-4.501-1.5435-4.755-3.7799-.119-1.0484.174-2.2143 1.113-3.3115 1.428-1.7897 3.028-3.3157 4.525-5.1132 3.287-5.398 4.603-11.9178 4.083-18.3715-5.561.9833-10.833 2.6417-16.362 3.9046Zm48.756 6.0912c.29.6753.439 1.3662.511 1.9953.238 2.0967-.622 3.8928-2.019 5.3251-1.763 5.0839-3.752 10.0517-5.428 15.2675-.588 1.6946-1.971 2.6298-3.441 2.7961-2.1.2378-4.445-1.0543-4.739-3.6402l-.048-.4193c-.158-1.3977.213-2.5016.896-3.3575.216-.5908.441-1.1118.587-1.6946.804-2.2855 1.554-4.4232 2.358-6.7087-.234-.1858-.226-.1159-.459-.3018l-1.865-2.0543c-.523-.8609-.844-1.8156-.947-2.7243-.167-1.4677.226-2.9987.924-4.3518 1.02-2.8762 3.414-4.2796 6.028-4.3633.84-.095 1.626-.0423 2.366.2279 1.456.3308 2.741 1.0348 3.856 2.1119.631.5656 1.123 1.1471 1.42 1.892ZM77.5219 107.156c-.8341.187-1.57.25-2.1931.119-2.423-.51-3.6891-3.095-3.2389-5.247.2904-1.388 1.3569-2.6858 3.2619-3.1547 1.2384-.3918 2.5315-.6996 3.8246-1.0073.152-1.4175.4424-2.8057.7328-4.1939.9585-4.5813 2.4708-9.046 4.3001-13.2992-.518-.9785-.7155-2.1071-.4832-3.2177.392-1.8741 1.8918-3.5153 4.2491-3.3819 1.0196-.7276 2.2144-.9112 3.322-.6782 1.1077.233 2.1282.8824 2.7848 1.8901l23.4 4.9212c2.838.597 3.857 2.9851 3.406 5.137-.421 2.013-2.31 3.7895-5.149 3.1925l-23.5381-4.9503c-1.7131 3.6978-3.1093 7.6072-3.9516 11.6332-.1452.6941-.2067 1.3335-.3519 2.0276 6.3828-.107 12.6166.8418 18.8216 1.9293 3.203.2387 4.469 2.8243 3.99 5.1143-.392 1.874-1.961 3.501-4.596 3.309-6.2626-.809-12.6319-2.149-19.0582-1.834.0018 7.247 1.8648 14.233 6.9439 20.012.9548.273 1.9788.561 2.948.765 7.6153 1.602 15.5203.438 22.9073-1.705.834-.186 1.57-.249 2.262-.103 2.354.495 3.649 2.941 3.199 5.093-.291 1.388-1.343 2.616-3.262 3.154-8.753 2.798-18.126 3.725-27.0566 1.847-2.0077-.423-4.0556-.998-6.0053-1.698-7.1894-7.092-10.1545-16.412-10.3838-26.025-.3897.135-.6956.216-1.0854.351Zm58.0631 29.966c-.486 3.014-2.951 4.089-5.097 3.638-2.008-.422-3.795-2.247-3.268-5.108l7.552-45.0801c-.355-2.1037.845-4.3876 3.18-4.8385.084-.0548.153-.0403.222-.0258.084-.0549.084-.0549.153-.0402.834-.187 1.611-.0962 2.482.2318 12.901 1.5539 25.781 3.9005 38.797 6.6376 2.907.6116 3.98 3.0838 3.545 5.1661-.421 2.013-2.227 3.7351-5.011 3.2221-3.848-.9545-7.696-1.9086-11.573-2.7241-7.892-1.6597-15.733-2.8739-23.941-3.3683l-7.041 42.2894Zm42.851-11.859c-3.202-.238-4.538-2.838-4.059-5.129.393-1.874 1.962-3.501 4.665-3.294 5.698.401 11.509.609 17.19 1.441-.036-3.631-.738-7.185-2.19-10.606-1.763-4.357-6.075-6.205-9.068-9.5162-1.557-1.1968-1.944-2.8002-1.653-4.1884.45-2.1518 2.645-4.009 4.999-3.514.623.131 1.272.4848 1.961.9922.937.7042 1.637 1.5037 2.337 2.3031 8.51 5.2683 12.518 15.8213 12.198 26.3343.609.201 1.217.401 1.964.631 2.573.831 3.427 2.967 3.02 4.91-.464 2.222-2.605 4.163-5.593 3.244-.277-.058-.485-.101-.609-.2-.722 3.109-1.817 5.922-3.145 8.469-2.613 8.002-9.098 13.088-16.415 16.621-1.158.699-2.199.842-3.169.638-2.284-.48-3.802-2.901-3.337-5.122.218-1.041.866-2.064 2.107-2.818 1.927-1.261 3.933-2.216 5.929-3.463 4.839-4.128 8.153-9.953 9.697-16.295-5.611-.818-11.16-.898-16.829-1.438Z" fill="#C3BBC6"/>
</svg>
