<svg width="365" height="139" fill="none" xmlns="http://www.w3.org/2000/svg">
  <path d="M202.208 84.7468c-.851.5033-1.639.8365-2.371.9188-2.847.3205-5.159-2.0274-5.428-4.5235-.173-1.6104.54-3.4021 2.469-4.5971 1.224-.8712 2.537-1.6711 3.851-2.4707-.336-1.5923-.51-3.2026-.683-4.813-.573-5.3145-.495-10.702.007-15.9743-.917-.8747-1.535-2.0276-1.674-3.3159-.235-2.1741.833-4.4946 3.474-5.1993.863-1.1566 2.113-1.7862 3.414-1.9327 1.302-.1465 2.656.1902 3.736 1.0466l27.496-3.0941c3.335-.3753 5.304 1.8481 5.573 4.3443.252 2.3351-1.196 4.9429-4.532 5.3181l-27.659 3.1125c-.571 4.6281-.719 9.3716-.216 14.0418.087.8052.247 1.5208.333 2.326 6.986-2.416 14.182-3.6333 21.396-4.6897 3.609-.895 5.92 1.4528 6.207 4.1101.234 2.174-.915 4.5037-3.881 5.2451-7.18 1.3783-14.664 2.2205-21.623 4.878 2.576 7.8597 7.108 14.766 14.749 19.2036 1.147-.0478 2.376-.1046 3.515-.2326 8.949-1.0069 17.233-5.1176 24.6-10.103.852-.5034 1.639-.8364 2.453-.9279 2.766-.3113 5.06 1.8756 5.329 4.3717.173 1.6104-.548 3.3214-2.469 4.5971-8.637 6.1873-18.622 10.5713-29.116 11.7523-2.359.265-4.817.379-7.211.322-10.429-5.101-17.002-14.1415-20.669-24.4865-.381.2874-.689.485-1.07.7723Zm74.534 11.5797c.536 3.4441-1.795 5.4995-4.317 5.7835-2.359.265-4.973-1.071-5.41-4.3629l-7.703-51.6173c-1.138-2.1539-.628-5.0637 1.781-6.3942.073-.0897.154-.0989.236-.1081.072-.0896.072-.0896.154-.0987.851-.5033 1.737-.6845 2.812-.6426 14.748-2.9636 29.755-5.0596 45.048-6.7807 3.417-.3844 5.476 1.9105 5.736 4.326.252 2.3351-1.124 4.8534-4.369 5.3-4.573.3517-9.146.7033-13.702 1.2158-9.273 1.0436-18.333 2.5521-27.54 4.9736l7.274 48.4056Zm42.939-28.3029c-3.609.895-6.002-1.4436-6.288-4.1008-.234-2.1741.914-4.5038 3.962-5.2542 6.413-1.618 12.881-3.4868 19.427-4.631-1.329-3.9253-3.364-7.5267-6.177-10.7144-3.488-4.09-8.888-4.5417-13.358-7.0541-2.138-.7373-3.133-2.3368-3.307-3.9472-.269-2.4962 1.487-5.3017 4.253-5.6129.732-.0825 1.572.0675 2.51.3695 1.281.4263 2.335 1.0412 3.39 1.656 11.235 2.6476 19.394 12.65 22.776 24.1681.741-.0018 1.482-.0038 2.385-.0239 3.126-.0258 4.825 1.9834 5.068 4.2381.277 2.5766-1.389 5.4536-5.003 5.5342-.325.0367-.569.0641-.741.0018.309 3.6327.104 7.0785-.452 10.3195-.034 9.6206-5.363 17.4735-12.159 23.9429-1.026 1.1749-2.121 1.7057-3.26 1.8339-2.685.302-5.214-1.7767-5.492-4.3534-.13-1.2078.219-2.551 1.318-3.8156 1.672-2.0625 3.541-3.8214 5.293-5.893 3.859-6.2205 5.437-13.7328 4.883-21.1682-6.465 1.135-12.598 3.0477-19.028 4.5047ZM50.4175 38.9017c1.856.6001 2.7469 1.6936 3.2833 3.0041l.2393.1072c9.247 6.6882 12.7793 17.267 11.7425 27.737-.7489 7.5615-3.8815 14.8075-8.8781 20.6976-5.0956 6.887-14.3247 7.5834-22.2425 6.8132l-2.0619-.2006c-.5774-.0562-1.2372-.1203-1.8888-.2676l-.9898-.0964C17.7447 95.5411 8.97507 84.8722 7.69414 73.4218c-.83377-3.3528-1.09837-6.5667-.78567-9.7243C8.52965 47.3278 24.6676 34.8871 41.2458 36.4996c3.0516.2969 6.1364 1.1002 9.1717 2.4021Zm-1.82 11.6523c-1.0147-.686-1.6912-1.423-2.1779-2.393-1.8395-.7662-3.7117-1.2001-5.6087-1.3846-3.4641-.3369-6.9281.1651-10.4001 1.5891-8.0572 3.1595-12.4517 9.6952-13.1841 17.0907-.3703 3.7392.1006 7.3925 1.487 11.0509 2.1872 7.344 8.6623 10.0711 15.6728 10.7532 3.3818.3288 6.8127.1591 9.8478-.2168 6.7458-3.3709 10.8351-10.1881 11.5676-17.5835.6911-6.9799-1.5867-14.2487-7.2044-18.906Zm31.3162 50.195c-.1889 3.589-2.9268 5.169-5.4836 4.92-2.3918-.233-4.7016-2.135-4.4466-5.55l3.1551-53.7217c-.6767-2.4149.4361-5.243 3.0999-6.0745.0908-.0751.1732-.067.2557-.059.0906-.0751.0906-.0751.1731-.0672.9484-.3272 1.8639-.322 2.9196-.0514 15.2253.1385 30.5251 1.2072 46.0311 2.7154 3.464.337 5.023 3.0894 4.776 5.5823-.238 2.4098-2.126 4.659-5.434 4.4212-4.602-.6154-9.204-1.2309-13.823-1.6801-9.403-.9147-18.6897-1.3145-28.3146-.8246l-2.9087 50.3896Zm48.4383-19.45c-3.761.1375-5.642-2.7302-5.371-5.4723.223-2.2436 1.847-4.3507 5.022-4.4613 6.689-.2723 13.485-.7858 20.207-.5513-.496-4.2432-1.759-8.309-3.879-12.1227-2.599-4.8671-7.853-6.4688-11.755-9.9525-1.964-1.1977-2.616-3.0229-2.451-4.6848.255-2.5759 2.58-5.0344 5.385-4.7616.742.0722 1.542.4017 2.408.9054 1.18.7021 2.095 1.5461 3.011 2.3903 10.575 5.0555 16.565 16.8802 17.508 29.2206.734.1553 1.468.3106 2.367.4819 3.102.6373 4.364 3.0253 4.134 5.352-.264 2.6589-2.515 5.2085-6.111 4.5231-.33-.032-.577-.0561-.734-.1552-.453 3.7312-1.376 7.165-2.604 10.3174-2.043 9.701-8.962 16.495-17.043 21.581-1.262.968-2.458 1.271-3.612 1.159-2.722-.265-4.793-2.899-4.53-5.558.124-1.247.751-2.528 2.103-3.571 2.086-1.727 4.305-3.105 6.473-4.823 5.121-5.459 8.253-12.7048 9.258-20.3255-6.64-.2263-13.114.4023-19.786.5085Zm54.556 19.065c.165.855.165 1.694.091 2.442-.247 2.493-1.681 4.367-3.644 5.686-3.289 5.469-6.81 10.748-10.033 16.391-1.097 1.823-2.92 2.568-4.652 2.4-2.474-.241-4.85-2.318-4.545-5.392l.049-.499c.165-1.662.866-2.852 1.863-3.678.396-.633.784-1.182 1.097-1.823 1.492-2.456 2.886-4.753 4.378-7.209-.223-.273-.231-.19-.454-.463l-1.634-2.844c-.388-1.128-.52-2.315-.413-3.396.173-1.745 1.006-3.4254 2.144-4.8249 1.888-3.0882 4.989-4.1289 8.016-3.5829.989.0963 1.88.3508 2.664.8466 1.592.7421 2.895 1.8756 3.91 3.4004.585.8119 1.006 1.6079 1.163 2.5458Z" fill="#C3BBC6"/>
</svg>
