<svg width="109" height="97" fill="none" xmlns="http://www.w3.org/2000/svg">
  <path d="M20.3667 9.37384c1.0529.10673 1.6499.58133 2.0832 1.20986l.1392.0294c5.6661 2.4757 8.7413 7.639 9.3795 13.2586.4609 4.0587-.3789 8.2194-2.3618 11.8771-1.9223 4.1927-6.7406 5.5964-11.0297 6.0818l-1.1169.1263c-.3127.0354-.6701.0759-1.0326.0718l-.5362.0606c-6.43354.7282-12.29813-3.8935-14.27756-9.768-.823016-1.6685-1.32823-3.328-1.5207056-5.0228C-.904674 18.5121 6.24678 10.1588 15.227 9.14242c1.6531-.18702 3.3812-.11161 5.1397.23142Zm.3568 6.32916c-.6163-.2465-1.0589-.5578-1.4273-1.0129-1.0631-.1959-2.1059-.2135-3.1334-.0972-1.8765.2124-3.6577.8657-5.3384 2.0045-3.91697 2.5665-5.50707 6.4959-5.05629 10.4654.22793 2.007.8925 3.8742 2.04347 5.6413 1.9942 3.6141 5.73982 4.3195 9.53732 3.8898 1.8318-.2074 3.6332-.6823 5.2011-1.2211 3.1971-2.5302 4.5932-6.5731 4.1425-10.5426-.4255-3.7464-2.4593-7.3109-5.969-9.1272ZM43.039 38.5652c.3071 1.9078-.9665 3.0457-2.3514 3.2024-1.2957.1466-2.7373-.5937-2.9896-2.4172L33.2744 10.759c-.6332-1.19315-.3637-2.80477.9555-3.5413.0396-.04968.0843-.05467.1289-.05975.0396-.04968.0396-.04968.0843-.05476.4661-.2786.9525-.37884 1.5434-.3553 8.095-1.63895 16.3351-2.79737 24.7345-3.74795 1.8765-.21237 3.0164 1.05902 3.1683 2.39704.1469 1.29345-.5997 2.68792-2.3818 2.9348-2.512.19401-5.0241.38792-7.5261.6711-5.0932.57634-10.0667 1.41032-15.1186 2.74992l4.1762 26.8124Zm23.4959-15.6691c-1.9801.4951-3.3039-.8007-3.471-2.2724-.1367-1.2043.486-2.4944 2.1584-2.9096 3.5185-.8951 7.0666-1.9291 10.6601-2.5616-.7447-2.1745-1.8763-4.1695-3.4345-5.93566-1.9316-2.26597-4.9015-2.51713-7.3674-3.9095-1.1778-.40879-1.731-1.29485-1.8322-2.18686-.157-1.38262.7978-2.936244 2.3169-3.108159.402-.0455048.8641.0377343 1.3809.20512.7056.236362 1.2872.57709 1.869.917819 6.1852 1.46835 10.7063 7.00999 12.6073 13.39024.4072-.0009.8144-.0018 1.3109-.0129 1.718-.0136 2.6589 1.0995 2.8008 2.3484.1621 1.4272-.7431 3.0203-2.7292 3.0644-.1786.0203-.3127.0354-.4071.0009.1832 2.0121.0833 3.9207-.2107 5.7157.0169 5.3287-2.8832 9.6773-6.5943 13.2596-.5596.6505-1.1598.9443-1.7853 1.0151-1.4744.1669-2.8723-.985-3.0343-2.4122-.076-.669.1111-1.413.7103-2.1132.9111-1.1421 1.9319-2.116 2.8876-3.2631 2.0976-3.4448 2.9374-7.6054 2.6055-11.7239-3.5488.6275-6.9131 1.6858-10.4417 2.4918Zm31.1142 3.8872c.1848.4309.2798.8718.3257 1.2732.1519 1.338-.3967 2.4842-1.2882 3.3983-1.1249 3.2443-2.394 6.4146-3.4641 9.7431-.375 1.0814-1.2574 1.6782-2.1957 1.7843-1.3403.1518-2.8367-.6728-3.0242-2.323l-.0303-.2676c-.1014-.8919.1355-1.5964.5712-2.1426.1382-.377.2814-.7095.3749-1.0814.5132-1.4585.9918-2.8227 1.5049-4.2812-.1492-.1186-.1441-.074-.2934-.1926l-1.1896-1.311c-.3339-.5494-.5389-1.1587-.6047-1.7385-.1063-.9366.1447-1.9136.5896-2.7772.6514-1.8354 2.1788-2.731 3.847-2.7844.5362-.0606 1.0377-.027 1.5098.1454.929.2111 1.7493.6604 2.4609 1.3477.4026.361.7163.7321.9062 1.2075ZM24.5239 66.7969c-.5324.1193-1.002.1594-1.3996.0757-1.5463-.3252-2.3542-1.975-2.067-3.3482.1854-.8859.866-1.7139 2.0817-2.0132.7903-.25 1.6155-.4464 2.4407-.6428.097-.9046.2823-1.7905.4676-2.6763.6117-2.9237 1.5768-5.7728 2.7442-8.487-.3306-.6245-.4567-1.3447-.3084-2.0534.2502-1.196 1.2073-2.2433 2.7116-2.1582.6506-.4644 1.4131-.5815 2.1199-.4328.707.1487 1.3582.5631 1.7772 1.2062l14.9328 3.1405c1.8114.3809 2.4613 1.905 2.174 3.2782-.2688 1.2846-1.4746 2.4183-3.2859 2.0373l-15.0213-3.1591c-1.0933 2.3598-1.9843 4.8547-2.5218 7.4238-.0926.443-.1319.851-.2246 1.294 4.0733-.0683 8.0516.5372 12.0115 1.2312 2.0437.1523 2.8517 1.8021 2.5458 3.2639-.2502 1.196-1.2514 2.2341-2.9325 2.1118-3.9968-.5169-8.0615-1.3717-12.1624-1.1706.0011 4.6247 1.19 9.0831 4.4313 12.7708.6093.1743 1.2627.3579 1.8813.4881 4.8597 1.0221 9.9042.2794 14.6181-1.0878.5324-.1193 1.0019-.1592 1.4437-.0663 1.5022.316 2.3286 1.8771 2.0414 3.2503-.1854.8859-.8567 1.6696-2.0816 2.0132-5.5855 1.785-11.5671 2.3769-17.2663 1.1783-1.2812-.2696-2.5881-.6369-3.8323-1.0835-4.588-4.5258-6.4802-10.4732-6.6265-16.6084-.2487.0865-.4439.1379-.6926.2243Zm37.0536 19.1229c-.3101 1.9234-1.8836 2.6098-3.2532 2.3218-1.2812-.2695-2.4213-1.4341-2.0855-3.2596l4.8194-28.7683c-.2266-1.3425.5396-2.8 2.0297-3.0878.0535-.035.0976-.0257.1418-.0165.0534-.035.0534-.035.0977-.0256.5322-.1193 1.0275-.0614 1.5833.1479 8.2333.9916 16.4529 2.4891 24.7588 4.2359 1.8555.3902 2.5401 1.9679 2.2622 3.2967-.2688 1.2846-1.4211 2.3835-3.1976 2.0561-2.4556-.6089-4.9111-1.2178-7.3852-1.7382-5.0365-1.0592-10.0403-1.8341-15.2785-2.1496l-4.4929 26.9872Zm27.3455-7.5675c-2.0437-.1524-2.8957-1.8114-2.59-3.2732.2503-1.196 1.2515-2.2341 2.9767-2.1024 3.6363.256 7.3447.3885 10.9693.9196-.022-2.3171-.4703-4.5848-1.3972-6.7683-1.1251-2.78-3.8763-3.9598-5.7866-6.0727-.9933-.7638-1.2405-1.787-1.0551-2.6729.2873-1.3731 1.6883-2.5584 3.1904-2.2424.3977.0835.8117.3093 1.2513.6331.5978.4494 1.0446.9596 1.4914 1.4697 5.4308 3.3621 7.9888 10.0968 7.7848 16.8057.388.1279.776.2558 1.253.4023 1.642.5303 2.187 1.8935 1.927 3.1338-.296 1.4175-1.662 2.6563-3.569 2.0702-.177-.0371-.309-.0649-.389-.1279-.461 1.9841-1.159 3.7794-2.007 5.4048-1.667 5.1062-5.8057 8.3517-10.4749 10.6069-.739.4457-1.4038.5372-2.0223.4071-1.458-.3067-2.4262-1.8513-2.1297-3.2689.1391-.6644.5524-1.3174 1.3448-1.7981 1.2293-.8052 2.5099-1.4146 3.7833-2.2103 3.0879-2.6341 5.2032-6.3513 6.1883-10.3986-3.5807-.5218-7.1216-.5728-10.7395-.9175Z" fill="#C3BBC6"/>
</svg>
